<svg version="1.1" xmlns="http://www.w3.org/2000/svg" xmlns:xlink="http://www.w3.org/1999/xlink" width="483.2490234375" height="682"><defs/><g><g transform="translate(-182,-22) scale(1,1)"><rect fill="#C0C0C0" stroke="none" x="305" y="39" width="185.287109375" height="130" opacity="0.2"/></g><g transform="translate(-182,-22) scale(1,1)"><rect fill="#ffffff" stroke="none" x="298" y="32" width="185.287109375" height="130"/></g><g transform="translate(-182,-22) scale(1,1)"><path fill="none" stroke="#000000" d="M 298 32 L 483.287109375 32 L 483.287109375 162 L 298 162 L 298 32 Z Z" stroke-miterlimit="10"/></g><g transform="translate(-182,-22) scale(1,1)"><path fill="none" stroke="#000000" d="M 298 57 L 483.287109375 57" stroke-miterlimit="10"/></g><g transform="translate(-182,-22) scale(1,1)"><path fill="none" stroke="#000000" d="M 298 80 L 483.287109375 80" stroke-miterlimit="10"/></g><g transform="translate(-182,-22) scale(1,1)"><g><path fill="none" stroke="none"/><text fill="#000000" stroke="none" font-family="Arial" font-size="13px" font-style="normal" font-weight="bold" text-decoration="none" x="327.05908203125" y="51.5">AbstractAppController</text></g></g><g transform="translate(-182,-22) scale(1,1)"><g><path fill="none" stroke="none"/><text fill="#000000" stroke="none" font-family="Arial" font-size="13px" font-style="normal" font-weight="normal" text-decoration="none" x="303" y="74.5">#session</text></g></g><g transform="translate(-182,-22) scale(1,1)"><g><path fill="none" stroke="none"/><text fill="#000000" stroke="none" font-family="Arial" font-size="13px" font-style="normal" font-weight="normal" text-decoration="none" x="303" y="97.5">+&lt;&lt;create&gt;&gt;()</text></g></g><g transform="translate(-182,-22) scale(1,1)"><g><path fill="none" stroke="none"/><text fill="#000000" stroke="none" font-family="Arial" font-size="13px" font-style="normal" font-weight="normal" text-decoration="none" x="303" y="112.5">#getGlobalAccess()</text></g></g><g transform="translate(-182,-22) scale(1,1)"><g><path fill="none" stroke="none"/><text fill="#000000" stroke="none" font-family="Arial" font-size="13px" font-style="normal" font-weight="normal" text-decoration="none" x="303" y="127.5">#hasGlobalAccess(): bool</text></g></g><g transform="translate(-182,-22) scale(1,1)"><g><path fill="none" stroke="none"/><text fill="#000000" stroke="none" font-family="Arial" font-size="13px" font-style="normal" font-weight="normal" text-decoration="none" x="303" y="142.5">#redirectToHomePage()</text></g></g><g transform="translate(-182,-22) scale(1,1)"><g><path fill="none" stroke="none"/><text fill="#000000" stroke="none" font-family="Arial" font-size="13px" font-style="normal" font-weight="normal" text-decoration="none" x="303" y="157.5">#setGlobalAccess(User $user)</text></g></g><g transform="translate(-182,-22) scale(1,1)"><rect fill="#C0C0C0" stroke="none" x="503" y="599" width="159.2490234375" height="102" opacity="0.2"/></g><g transform="translate(-182,-22) scale(1,1)"><rect fill="#ffffff" stroke="none" x="496" y="592" width="159.2490234375" height="102"/></g><g transform="translate(-182,-22) scale(1,1)"><path fill="none" stroke="#000000" d="M 496 592 L 655.2490234375 592 L 655.2490234375 694 L 496 694 L 496 592 Z Z" stroke-miterlimit="10"/></g><g transform="translate(-182,-22) scale(1,1)"><path fill="none" stroke="#000000" d="M 496 617 L 655.2490234375 617" stroke-miterlimit="10"/></g><g transform="translate(-182,-22) scale(1,1)"><path fill="none" stroke="#000000" d="M 496 627 L 655.2490234375 627" stroke-miterlimit="10"/></g><g transform="translate(-182,-22) scale(1,1)"><g><path fill="none" stroke="none"/><text fill="#000000" stroke="none" font-family="Arial" font-size="13px" font-style="normal" font-weight="bold" text-decoration="none" x="527.937744140625" y="611.5">CreateController</text></g></g><g transform="translate(-182,-22) scale(1,1)"><g><path fill="none" stroke="none"/><text fill="#000000" stroke="none" font-family="Arial" font-size="13px" font-style="normal" font-weight="normal" text-decoration="none" x="501" y="644.5">+&lt;&lt;create&gt;&gt;()</text></g></g><g transform="translate(-182,-22) scale(1,1)"><g><path fill="none" stroke="none"/><text fill="#000000" stroke="none" font-family="Arial" font-size="13px" font-style="normal" font-weight="normal" text-decoration="none" x="501" y="659.5">+createAction()</text></g></g><g transform="translate(-182,-22) scale(1,1)"><g><path fill="none" stroke="none"/><text fill="#000000" stroke="none" font-family="Arial" font-size="13px" font-style="normal" font-weight="normal" text-decoration="none" x="501" y="674.5">-createSprint(Form $form)</text></g></g><g transform="translate(-182,-22) scale(1,1)"><g><path fill="none" stroke="none"/><text fill="#000000" stroke="none" font-family="Arial" font-size="13px" font-style="normal" font-weight="normal" text-decoration="none" x="501" y="689.5">-getCreateForm()</text></g></g><g transform="translate(-182,-22) scale(1,1)"><rect fill="#C0C0C0" stroke="none" x="199" y="599" width="112.669921875" height="102" opacity="0.2"/></g><g transform="translate(-182,-22) scale(1,1)"><rect fill="#ffffff" stroke="none" x="192" y="592" width="112.669921875" height="102"/></g><g transform="translate(-182,-22) scale(1,1)"><path fill="none" stroke="#000000" d="M 192 592 L 304.669921875 592 L 304.669921875 694 L 192 694 L 192 592 Z Z" stroke-miterlimit="10"/></g><g transform="translate(-182,-22) scale(1,1)"><path fill="none" stroke="#000000" d="M 192 617 L 304.669921875 617" stroke-miterlimit="10"/></g><g transform="translate(-182,-22) scale(1,1)"><path fill="none" stroke="#000000" d="M 192 627 L 304.669921875 627" stroke-miterlimit="10"/></g><g transform="translate(-182,-22) scale(1,1)"><g><path fill="none" stroke="none"/><text fill="#000000" stroke="none" font-family="Arial" font-size="13px" font-style="normal" font-weight="bold" text-decoration="none" x="203.177734375" y="611.5">SprintController</text></g></g><g transform="translate(-182,-22) scale(1,1)"><g><path fill="none" stroke="none"/><text fill="#000000" stroke="none" font-family="Arial" font-size="13px" font-style="normal" font-weight="normal" text-decoration="none" x="197" y="644.5">+&lt;&lt;create&gt;&gt;()</text></g></g><g transform="translate(-182,-22) scale(1,1)"><g><path fill="none" stroke="none"/><text fill="#000000" stroke="none" font-family="Arial" font-size="13px" font-style="normal" font-weight="normal" text-decoration="none" x="197" y="659.5">+sprintAction()</text></g></g><g transform="translate(-182,-22) scale(1,1)"><rect fill="#C0C0C0" stroke="none" x="278" y="255" width="238.0107421875" height="207" opacity="0.2"/></g><g transform="translate(-182,-22) scale(1,1)"><rect fill="#ffffff" stroke="none" x="271" y="248" width="238.0107421875" height="207"/></g><g transform="translate(-182,-22) scale(1,1)"><path fill="none" stroke="#000000" d="M 271 248 L 509.0107421875 248 L 509.0107421875 455 L 271 455 L 271 248 Z Z" stroke-miterlimit="10"/></g><g transform="translate(-182,-22) scale(1,1)"><path fill="none" stroke="#000000" d="M 271 273 L 509.0107421875 273" stroke-miterlimit="10"/></g><g transform="translate(-182,-22) scale(1,1)"><path fill="none" stroke="#000000" d="M 271 283 L 509.0107421875 283" stroke-miterlimit="10"/></g><g transform="translate(-182,-22) scale(1,1)"><g><path fill="none" stroke="none"/><text fill="#000000" stroke="none" font-family="Arial" font-size="13px" font-style="normal" font-weight="bold" text-decoration="none" x="321.00634765625" y="267.5">AbstractSprintController</text></g></g><g transform="translate(-182,-22) scale(1,1)"><g><path fill="none" stroke="none"/><text fill="#000000" stroke="none" font-family="Arial" font-size="13px" font-style="normal" font-weight="normal" text-decoration="none" x="276" y="300.5">+&lt;&lt;create&gt;&gt;()</text></g></g><g transform="translate(-182,-22) scale(1,1)"><g><path fill="none" stroke="none"/><text fill="#000000" stroke="none" font-family="Arial" font-size="13px" font-style="normal" font-weight="normal" text-decoration="none" x="276" y="315.5">#getSprintAccess()</text></g></g><g transform="translate(-182,-22) scale(1,1)"><g><path fill="none" stroke="none"/><text fill="#000000" stroke="none" font-family="Arial" font-size="13px" font-style="normal" font-weight="normal" text-decoration="none" x="276" y="330.5">#hasSprintAccess()</text></g></g><g transform="translate(-182,-22) scale(1,1)"><g><path fill="none" stroke="none"/><text fill="#000000" stroke="none" font-family="Arial" font-size="13px" font-style="normal" font-weight="normal" text-decoration="none" x="276" y="345.5">#readUserSprint()</text></g></g><g transform="translate(-182,-22) scale(1,1)"><g><path fill="none" stroke="none"/><text fill="#000000" stroke="none" font-family="Arial" font-size="13px" font-style="normal" font-weight="normal" text-decoration="none" x="276" y="360.5">#redirectToCreate()</text></g></g><g transform="translate(-182,-22) scale(1,1)"><g><path fill="none" stroke="none"/><text fill="#000000" stroke="none" font-family="Arial" font-size="13px" font-style="normal" font-weight="normal" text-decoration="none" x="276" y="375.5">#redirectToSprint()</text></g></g><g transform="translate(-182,-22) scale(1,1)"><g><path fill="none" stroke="none"/><text fill="#000000" stroke="none" font-family="Arial" font-size="13px" font-style="normal" font-weight="normal" text-decoration="none" x="276" y="390.5">#setSprintAccess(Sprint $sprint)</text></g></g><g transform="translate(-182,-22) scale(1,1)"><g><path fill="none" stroke="none"/><text fill="#000000" stroke="none" font-family="Arial" font-size="13px" font-style="normal" font-weight="normal" text-decoration="none" x="276" y="405.5">#readSprint()</text></g></g><g transform="translate(-182,-22) scale(1,1)"><g><path fill="none" stroke="none"/><text fill="#000000" stroke="none" font-family="Arial" font-size="13px" font-style="normal" font-weight="normal" text-decoration="none" x="276" y="420.5">#setScrumMasterAccess(Sprint $sprint)</text></g></g><g transform="translate(-182,-22) scale(1,1)"><g><path fill="none" stroke="none"/><text fill="#000000" stroke="none" font-family="Arial" font-size="13px" font-style="normal" font-weight="normal" text-decoration="none" x="276" y="435.5">#getScrumMasterAccess()</text></g></g><g transform="translate(-182,-22) scale(1,1)"><g><path fill="none" stroke="none"/><text fill="#000000" stroke="none" font-family="Arial" font-size="13px" font-style="normal" font-weight="normal" text-decoration="none" x="276" y="450.5">#hasScrumMasterAccess()</text></g></g><g transform="translate(-182,-22) scale(1,1)"><path fill="none" stroke="#000000" d="M 390 247 L 390 163" stroke-miterlimit="10"/></g><g transform="translate(-182,-22) scale(1,1)"><path fill="#FFFFFF" stroke="none" d="M 398.419035512032 183.3253497152483 L 390 163 L 381.580964487968 183.3253497152483"/></g><g transform="translate(-182,-22) scale(1,1)"><path fill="none" stroke="#000000" d="M 398.419035512032 183.3253497152483 L 390 163 L 381.580964487968 183.3253497152483 L 398.419035512032 183.3253497152483" stroke-miterlimit="10"/></g><g transform="translate(-182,-22) scale(1,1)"><path fill="none" stroke="#000000" d="M 584 592 L 584 512 L 400 512 L 400 455" stroke-miterlimit="10"/></g><g transform="translate(-182,-22) scale(1,1)"><path fill="#FFFFFF" stroke="none" d="M 408.419035512032 475.3253497152483 L 400 455 L 391.580964487968 475.3253497152483"/></g><g transform="translate(-182,-22) scale(1,1)"><path fill="none" stroke="#000000" d="M 408.419035512032 475.3253497152483 L 400 455 L 391.580964487968 475.3253497152483 L 408.419035512032 475.3253497152483" stroke-miterlimit="10"/></g><g transform="translate(-182,-22) scale(1,1)"><path fill="none" stroke="#000000" d="M 248 592 L 248 512 L 401 512 L 401 455" stroke-miterlimit="10"/></g><g transform="translate(-182,-22) scale(1,1)"><path fill="#FFFFFF" stroke="none" d="M 409.419035512032 475.3253497152483 L 401 455 L 392.580964487968 475.3253497152483"/></g><g transform="translate(-182,-22) scale(1,1)"><path fill="none" stroke="#000000" d="M 409.419035512032 475.3253497152483 L 401 455 L 392.580964487968 475.3253497152483 L 409.419035512032 475.3253497152483" stroke-miterlimit="10"/></g><g transform="translate(-182,-22) scale(1,1)"><rect fill="#C0C0C0" stroke="none" x="342" y="599" width="110.130859375" height="72" opacity="0.2"/></g><g transform="translate(-182,-22) scale(1,1)"><rect fill="#ffffff" stroke="none" x="335" y="592" width="110.130859375" height="72"/></g><g transform="translate(-182,-22) scale(1,1)"><path fill="none" stroke="#000000" d="M 335 592 L 445.130859375 592 L 445.130859375 664 L 335 664 L 335 592 Z Z" stroke-miterlimit="10"/></g><g transform="translate(-182,-22) scale(1,1)"><path fill="none" stroke="#000000" d="M 335 617 L 445.130859375 617" stroke-miterlimit="10"/></g><g transform="translate(-182,-22) scale(1,1)"><path fill="none" stroke="#000000" d="M 335 627 L 445.130859375 627" stroke-miterlimit="10"/></g><g transform="translate(-182,-22) scale(1,1)"><g><path fill="none" stroke="none"/><text fill="#000000" stroke="none" font-family="Arial" font-size="13px" font-style="normal" font-weight="bold" text-decoration="none" x="343.09912109375" y="611.5">DeleteController</text></g></g><g transform="translate(-182,-22) scale(1,1)"><g><path fill="none" stroke="none"/><text fill="#000000" stroke="none" font-family="Arial" font-size="13px" font-style="normal" font-weight="normal" text-decoration="none" x="340" y="644.5">+&lt;&lt;create&gt;&gt;()</text></g></g><g transform="translate(-182,-22) scale(1,1)"><g><path fill="none" stroke="none"/><text fill="#000000" stroke="none" font-family="Arial" font-size="13px" font-style="normal" font-weight="normal" text-decoration="none" x="340" y="659.5">+deleteAction()</text></g></g><g transform="translate(-182,-22) scale(1,1)"><path fill="none" stroke="#000000" d="M 401 592 L 401 455" stroke-miterlimit="10"/></g><g transform="translate(-182,-22) scale(1,1)"><path fill="#FFFFFF" stroke="none" d="M 409.419035512032 475.3253497152483 L 401 455 L 392.580964487968 475.3253497152483"/></g><g transform="translate(-182,-22) scale(1,1)"><path fill="none" stroke="#000000" d="M 409.419035512032 475.3253497152483 L 401 455 L 392.580964487968 475.3253497152483 L 409.419035512032 475.3253497152483" stroke-miterlimit="10"/></g></g></svg>