<svg version="1.1" xmlns="http://www.w3.org/2000/svg" xmlns:xlink="http://www.w3.org/1999/xlink" width="1555" height="1027"><defs/><g><g transform="translate(-54,-6) scale(1,1)"><path fill="#aaaaaa" stroke="none" d="M 1032 576 L 1479 576 Q 1591 576 1591 688 L 1591 911 Q 1591 1023 1479 1023 L 1032 1023 Q 920 1023 920 911 L 920 688 Q 920 576 1032 576 Z"/></g><g transform="translate(-54,-6) scale(1,1)"><path fill="none" stroke="#000000" d="M 1032 576 L 1479 576 Q 1591 576 1591 688 L 1591 911 Q 1591 1023 1479 1023 L 1032 1023 Q 920 1023 920 911 L 920 688 Q 920 576 1032 576 Z" stroke-miterlimit="10"/></g><g transform="translate(-54,-6) scale(1,1)"><path fill="#aaaaaa" stroke="none" d="M 1040 16 L 1487 16 Q 1599 16 1599 128 L 1599 423 Q 1599 535 1487 535 L 1040 535 Q 928 535 928 423 L 928 128 Q 928 16 1040 16 Z"/></g><g transform="translate(-54,-6) scale(1,1)"><path fill="none" stroke="#000000" d="M 1040 16 L 1487 16 Q 1599 16 1599 128 L 1599 423 Q 1599 535 1487 535 L 1040 535 Q 928 535 928 423 L 928 128 Q 928 16 1040 16 Z" stroke-miterlimit="10"/></g><g transform="translate(-54,-6) scale(1,1)"><path fill="#aaaaaa" stroke="none" d="M 189.5 24 L 690.5 24 Q 816 24 816 149.5 L 816 610.5 Q 816 736 690.5 736 L 189.5 736 Q 64 736 64 610.5 L 64 149.5 Q 64 24 189.5 24 Z"/></g><g transform="translate(-54,-6) scale(1,1)"><path fill="none" stroke="#000000" d="M 189.5 24 L 690.5 24 Q 816 24 816 149.5 L 816 610.5 Q 816 736 690.5 736 L 189.5 736 Q 64 736 64 610.5 L 64 149.5 Q 64 24 189.5 24 Z" stroke-miterlimit="10"/></g><g transform="translate(-54,-6) scale(1,1)"><path fill="#C0C0C0" stroke="none" d="M 127 64.5 C 127 59.2532944 131.2532944 55 136.5 55 C 141.7467056 55 146 59.2532944 146 64.5 C 146 69.7467056 141.7467056 74 136.5 74 C 131.2532944 74 127 69.7467056 127 64.5 Z" opacity="0.2"/></g><g transform="translate(-54,-6) scale(1,1)"><path fill="#000000" stroke="none" d="M 120 57.5 C 120 52.2532944 124.2532944 48 129.5 48 C 134.7467056 48 139 52.2532944 139 57.5 C 139 62.7467056 134.7467056 67 129.5 67 C 124.2532944 67 120 62.7467056 120 57.5 Z"/></g><g transform="translate(-54,-6) scale(1,1)"><path fill="#C0C0C0" stroke="none" d="M 719 675.5 C 719 668.59644 724.59644 663 731.5 663 C 738.40356 663 744 668.59644 744 675.5 C 744 682.40356 738.40356 688 731.5 688 C 724.59644 688 719 682.40356 719 675.5 Z" opacity="0.2"/></g><g transform="translate(-54,-6) scale(1,1)"><path fill="none" stroke="#000000" d="M 712 668.5 C 712 661.59644 717.59644 656 724.5 656 C 731.40356 656 737 661.59644 737 668.5 C 737 675.40356 731.40356 681 724.5 681 C 717.59644 681 712 675.40356 712 668.5 Z" stroke-miterlimit="10"/></g><g transform="translate(-54,-6) scale(1,1)"><path fill="#000000" stroke="none" d="M 717 668.5 C 717 664.357864 720.357864 661 724.5 661 C 728.642136 661 732 664.357864 732 668.5 C 732 672.642136 728.642136 676 724.5 676 C 720.357864 676 717 672.642136 717 668.5 Z"/></g><g transform="translate(-54,-6) scale(1,1)"><path fill="#C0C0C0" stroke="none" d="M 193 47 L 290.38623046875 47 Q 300.38623046875 47 300.38623046875 57 L 300.38623046875 77 Q 300.38623046875 87 290.38623046875 87 L 193 87 Q 183 87 183 77 L 183 57 Q 183 47 193 47 Z" opacity="0.2"/></g><g transform="translate(-54,-6) scale(1,1)"><path fill="#ffffff" stroke="none" d="M 186 40 L 283.38623046875 40 Q 293.38623046875 40 293.38623046875 50 L 293.38623046875 70 Q 293.38623046875 80 283.38623046875 80 L 186 80 Q 176 80 176 70 L 176 50 Q 176 40 186 40 Z"/></g><g transform="translate(-54,-6) scale(1,1)"><path fill="none" stroke="#000000" d="M 186 40 L 283.38623046875 40 Q 293.38623046875 40 293.38623046875 50 L 293.38623046875 70 Q 293.38623046875 80 283.38623046875 80 L 186 80 Q 176 80 176 70 L 176 50 Q 176 40 186 40 Z" stroke-miterlimit="10"/></g><g transform="translate(-54,-6) scale(1,1)"><g><path fill="none" stroke="none"/><text fill="#000000" stroke="none" font-family="Arial" font-size="13px" font-style="normal" font-weight="bold" text-decoration="none" x="184.4736328125" y="59.5">hasGlobalAccess</text></g></g><g transform="translate(-54,-6) scale(1,1)"><path fill="#C0C0C0" stroke="none" d="M 201 399 L 283.919921875 399 Q 293.919921875 399 293.919921875 409 L 293.919921875 429 Q 293.919921875 439 283.919921875 439 L 201 439 Q 191 439 191 429 L 191 409 Q 191 399 201 399 Z" opacity="0.2"/></g><g transform="translate(-54,-6) scale(1,1)"><path fill="#ffffff" stroke="none" d="M 194 392 L 276.919921875 392 Q 286.919921875 392 286.919921875 402 L 286.919921875 422 Q 286.919921875 432 276.919921875 432 L 194 432 Q 184 432 184 422 L 184 402 Q 184 392 194 392 Z"/></g><g transform="translate(-54,-6) scale(1,1)"><path fill="none" stroke="#000000" d="M 194 392 L 276.919921875 392 Q 286.919921875 392 286.919921875 402 L 286.919921875 422 Q 286.919921875 432 276.919921875 432 L 194 432 Q 184 432 184 422 L 184 402 Q 184 392 194 392 Z" stroke-miterlimit="10"/></g><g transform="translate(-54,-6) scale(1,1)"><g><path fill="none" stroke="none"/><text fill="#000000" stroke="none" font-family="Arial" font-size="13px" font-style="normal" font-weight="bold" text-decoration="none" x="191.746826171875" y="411.5">readUserSprint</text></g></g><g transform="translate(-54,-6) scale(1,1)"><path fill="none" stroke="#000000" d="M 140 57 L 175 58" stroke-miterlimit="10"/></g><g transform="translate(-54,-6) scale(1,1)"><path fill="none" stroke="#000000" d="M 164.7212477597107 61.917556940587815 L 175 58 L 164.96169351038094 53.50195566712909" stroke-miterlimit="10"/></g><g transform="translate(-54,-6) scale(1,1)"><path fill="#C0C0C0" stroke="none" d="M 681 119 L 800.76171875 119 Q 810.76171875 119 810.76171875 129 L 810.76171875 149 Q 810.76171875 159 800.76171875 159 L 681 159 Q 671 159 671 149 L 671 129 Q 671 119 681 119 Z" opacity="0.2"/></g><g transform="translate(-54,-6) scale(1,1)"><path fill="#ffffff" stroke="none" d="M 674 112 L 793.76171875 112 Q 803.76171875 112 803.76171875 122 L 803.76171875 142 Q 803.76171875 152 793.76171875 152 L 674 152 Q 664 152 664 142 L 664 122 Q 664 112 674 112 Z"/></g><g transform="translate(-54,-6) scale(1,1)"><path fill="none" stroke="#000000" d="M 674 112 L 793.76171875 112 Q 803.76171875 112 803.76171875 122 L 803.76171875 142 Q 803.76171875 152 793.76171875 152 L 674 152 Q 664 152 664 142 L 664 122 Q 664 112 674 112 Z" stroke-miterlimit="10"/></g><g transform="translate(-54,-6) scale(1,1)"><g><path fill="none" stroke="none"/><text fill="#000000" stroke="none" font-family="Arial" font-size="13px" font-style="normal" font-weight="bold" text-decoration="none" x="672.102294921875" y="131.5">redirectToHomePage</text></g></g><g transform="translate(-54,-6) scale(1,1)"><path fill="#C0C0C0" stroke="none" d="M 231 136.5 L 242.5 127 L 253 136.5 L 242.5 145 L 231 136.5" opacity="0.2"/></g><g transform="translate(-54,-6) scale(1,1)"><path fill="#ffffff" stroke="none" d="M 224 129 L 235 120 L 246 129 L 235 138 L 224 129"/></g><g transform="translate(-54,-6) scale(1,1)"><path fill="none" stroke="#000000" d="M 224 129 L 235 120 L 246 129 L 235 138 L 224 129 L 224 129" stroke-miterlimit="10"/></g><g transform="translate(-54,-6) scale(1,1)"><path fill="none" stroke="#000000" d="M 234 81 L 235 119" stroke-miterlimit="10"/></g><g transform="translate(-54,-6) scale(1,1)"><path fill="none" stroke="#000000" d="M 230.5245928199676 108.95158069281966 L 235 119 L 238.94071466674117 108.7301038021151" stroke-miterlimit="10"/></g><g transform="translate(-54,-6) scale(1,1)"><path fill="none" stroke="#000000" d="M 247 129 L 663 132" stroke-miterlimit="10"/></g><g transform="translate(-54,-6) scale(1,1)"><path fill="none" stroke="#000000" d="M 652.8072330837086 136.13612168464078 L 663 132 L 652.8679457034142 127.71730508545868" stroke-miterlimit="10"/></g><g transform="translate(-54,-6) scale(1,1)"><g><path fill="none" stroke="none"/><text fill="#000000" stroke="none" font-family="Arial" font-size="13px" font-style="normal" font-weight="normal" text-decoration="none" x="434.917236328125" y="147.5"> [false]</text></g></g><g transform="translate(-54,-6) scale(1,1)"><path fill="none" stroke="#000000" d="M 731 227 L 724 655" stroke-miterlimit="10"/></g><g transform="translate(-54,-6) scale(1,1)"><path fill="none" stroke="#000000" d="M 719.9572348806563 644.7698460329369 L 724 655 L 728.3751446120604 644.9075221266747" stroke-miterlimit="10"/></g><g transform="translate(-54,-6) scale(1,1)"><path fill="#C0C0C0" stroke="none" d="M 367 416.5 L 378.5 407 L 389 416.5 L 378.5 425 L 367 416.5" opacity="0.2"/></g><g transform="translate(-54,-6) scale(1,1)"><path fill="#ffffff" stroke="none" d="M 360 409 L 371 400 L 382 409 L 371 418 L 360 409"/></g><g transform="translate(-54,-6) scale(1,1)"><path fill="none" stroke="#000000" d="M 360 409 L 371 400 L 382 409 L 371 418 L 360 409 L 360 409" stroke-miterlimit="10"/></g><g transform="translate(-54,-6) scale(1,1)"><path fill="none" stroke="#000000" d="M 288 411 L 359 409" stroke-miterlimit="10"/></g><g transform="translate(-54,-6) scale(1,1)"><path fill="none" stroke="#000000" d="M 348.95988569943853 413.4940076581667 L 359 409 L 348.722823804391 405.07831038397893" stroke-miterlimit="10"/></g><g transform="translate(-54,-6) scale(1,1)"><path fill="#C0C0C0" stroke="none" d="M 593 399 L 683.8798828125 399 Q 693.8798828125 399 693.8798828125 409 L 693.8798828125 429 Q 693.8798828125 439 683.8798828125 439 L 593 439 Q 583 439 583 429 L 583 409 Q 583 399 593 399 Z" opacity="0.2"/></g><g transform="translate(-54,-6) scale(1,1)"><path fill="#ffffff" stroke="none" d="M 586 392 L 676.8798828125 392 Q 686.8798828125 392 686.8798828125 402 L 686.8798828125 422 Q 686.8798828125 432 676.8798828125 432 L 586 432 Q 576 432 576 422 L 576 402 Q 576 392 586 392 Z"/></g><g transform="translate(-54,-6) scale(1,1)"><path fill="none" stroke="#000000" d="M 586 392 L 676.8798828125 392 Q 686.8798828125 392 686.8798828125 402 L 686.8798828125 422 Q 686.8798828125 432 676.8798828125 432 L 586 432 Q 576 432 576 422 L 576 402 Q 576 392 586 392 Z" stroke-miterlimit="10"/></g><g transform="translate(-54,-6) scale(1,1)"><g><path fill="none" stroke="none"/><text fill="#000000" stroke="none" font-family="Arial" font-size="13px" font-style="normal" font-weight="bold" text-decoration="none" x="584.838623046875" y="411.5">setSprintAccess</text></g></g><g transform="translate(-54,-6) scale(1,1)"><path fill="#C0C0C0" stroke="none" d="M 193 207 L 287.49169921875 207 Q 297.49169921875 207 297.49169921875 217 L 297.49169921875 237 Q 297.49169921875 247 287.49169921875 247 L 193 247 Q 183 247 183 237 L 183 217 Q 183 207 193 207 Z" opacity="0.2"/></g><g transform="translate(-54,-6) scale(1,1)"><path fill="#ffffff" stroke="none" d="M 186 200 L 280.49169921875 200 Q 290.49169921875 200 290.49169921875 210 L 290.49169921875 230 Q 290.49169921875 240 280.49169921875 240 L 186 240 Q 176 240 176 230 L 176 210 Q 176 200 186 200 Z"/></g><g transform="translate(-54,-6) scale(1,1)"><path fill="none" stroke="#000000" d="M 186 200 L 280.49169921875 200 Q 290.49169921875 200 290.49169921875 210 L 290.49169921875 230 Q 290.49169921875 240 280.49169921875 240 L 186 240 Q 176 240 176 230 L 176 210 Q 176 200 186 200 Z" stroke-miterlimit="10"/></g><g transform="translate(-54,-6) scale(1,1)"><g><path fill="none" stroke="none"/><text fill="#000000" stroke="none" font-family="Arial" font-size="13px" font-style="normal" font-weight="bold" text-decoration="none" x="184.83544921875" y="219.5">hasSprintAccess</text></g></g><g transform="translate(-54,-6) scale(1,1)"><path fill="none" stroke="#000000" d="M 235 139 L 233 199" stroke-miterlimit="10"/></g><g transform="translate(-54,-6) scale(1,1)"><path fill="none" stroke="#000000" d="M 229.13138670550276 188.7027270028595 L 233 199 L 237.54574886967976 188.9832057416654" stroke-miterlimit="10"/></g><g transform="translate(-54,-6) scale(1,1)"><path fill="#C0C0C0" stroke="none" d="M 231 328.5 L 242.5 319 L 253 328.5 L 242.5 337 L 231 328.5" opacity="0.2"/></g><g transform="translate(-54,-6) scale(1,1)"><path fill="#ffffff" stroke="none" d="M 224 321 L 235 312 L 246 321 L 235 330 L 224 321"/></g><g transform="translate(-54,-6) scale(1,1)"><path fill="none" stroke="#000000" d="M 224 321 L 235 312 L 246 321 L 235 330 L 224 321 L 224 321" stroke-miterlimit="10"/></g><g transform="translate(-54,-6) scale(1,1)"><path fill="none" stroke="#000000" d="M 233 241 L 235 311" stroke-miterlimit="10"/></g><g transform="translate(-54,-6) scale(1,1)"><path fill="none" stroke="#000000" d="M 230.5019556671291 300.96169351038094 L 235 311 L 238.91755694058782 300.7212477597107" stroke-miterlimit="10"/></g><g transform="translate(-54,-6) scale(1,1)"><path fill="#C0C0C0" stroke="none" d="M 577 207 L 696.76171875 207 Q 706.76171875 207 706.76171875 217 L 706.76171875 237 Q 706.76171875 247 696.76171875 247 L 577 247 Q 567 247 567 237 L 567 217 Q 567 207 577 207 Z" opacity="0.2"/></g><g transform="translate(-54,-6) scale(1,1)"><path fill="#ffffff" stroke="none" d="M 570 200 L 689.76171875 200 Q 699.76171875 200 699.76171875 210 L 699.76171875 230 Q 699.76171875 240 689.76171875 240 L 570 240 Q 560 240 560 230 L 560 210 Q 560 200 570 200 Z"/></g><g transform="translate(-54,-6) scale(1,1)"><path fill="none" stroke="#000000" d="M 570 200 L 689.76171875 200 Q 699.76171875 200 699.76171875 210 L 699.76171875 230 Q 699.76171875 240 689.76171875 240 L 570 240 Q 560 240 560 230 L 560 210 Q 560 200 570 200 Z" stroke-miterlimit="10"/></g><g transform="translate(-54,-6) scale(1,1)"><g><path fill="none" stroke="none"/><text fill="#000000" stroke="none" font-family="Arial" font-size="13px" font-style="normal" font-weight="bold" text-decoration="none" x="583.641357421875" y="219.5">redirectToSprint</text></g></g><g transform="translate(-54,-6) scale(1,1)"><path fill="none" stroke="#000000" d="M 247 321 L 615 321" stroke-miterlimit="10"/></g><g transform="translate(-54,-6) scale(1,1)"><path fill="none" stroke="#000000" d="M 604.8373251423759 325.209517756016 L 615 321 L 604.8373251423758 316.790482243984" stroke-miterlimit="10"/></g><g transform="translate(-54,-6) scale(1,1)"><g><path fill="none" stroke="none"/><text fill="#000000" stroke="none" font-family="Arial" font-size="13px" font-style="normal" font-weight="normal" text-decoration="none" x="413.93994140625" y="312.5"> [true]</text></g></g><g transform="translate(-54,-6) scale(1,1)"><path fill="none" stroke="#000000" d="M 235 331 L 235 391" stroke-miterlimit="10"/></g><g transform="translate(-54,-6) scale(1,1)"><path fill="none" stroke="#000000" d="M 230.790482243984 380.83732514237585 L 235 391 L 239.209517756016 380.83732514237585" stroke-miterlimit="10"/></g><g transform="translate(-54,-6) scale(1,1)"><path fill="none" stroke="#000000" d="M 630 391 L 627 331" stroke-miterlimit="10"/></g><g transform="translate(-54,-6) scale(1,1)"><path fill="none" stroke="#000000" d="M 631.7117654685342 340.93978199808873 L 627 331 L 623.3032340597965 341.36020856852565" stroke-miterlimit="10"/></g><g transform="translate(-54,-6) scale(1,1)"><path fill="#C0C0C0" stroke="none" d="M 623 328.5 L 634.5 319 L 645 328.5 L 634.5 337 L 623 328.5" opacity="0.2"/></g><g transform="translate(-54,-6) scale(1,1)"><path fill="#ffffff" stroke="none" d="M 616 321 L 627 312 L 638 321 L 627 330 L 616 321"/></g><g transform="translate(-54,-6) scale(1,1)"><path fill="none" stroke="#000000" d="M 616 321 L 627 312 L 638 321 L 627 330 L 616 321 L 616 321" stroke-miterlimit="10"/></g><g transform="translate(-54,-6) scale(1,1)"><path fill="none" stroke="#000000" d="M 627 311 L 629 241" stroke-miterlimit="10"/></g><g transform="translate(-54,-6) scale(1,1)"><path fill="none" stroke="#000000" d="M 632.9175569405878 251.2787522402893 L 629 241 L 624.5019556671291 251.03830648961906" stroke-miterlimit="10"/></g><g transform="translate(-54,-6) scale(1,1)"><path fill="#C0C0C0" stroke="none" d="M 727 224.5 L 738.5 215 L 749 224.5 L 738.5 233 L 727 224.5" opacity="0.2"/></g><g transform="translate(-54,-6) scale(1,1)"><path fill="#ffffff" stroke="none" d="M 720 217 L 731 208 L 742 217 L 731 226 L 720 217"/></g><g transform="translate(-54,-6) scale(1,1)"><path fill="none" stroke="#000000" d="M 720 217 L 731 208 L 742 217 L 731 226 L 720 217 L 720 217" stroke-miterlimit="10"/></g><g transform="translate(-54,-6) scale(1,1)"><path fill="none" stroke="#000000" d="M 733 153 L 731 207" stroke-miterlimit="10"/></g><g transform="translate(-54,-6) scale(1,1)"><path fill="none" stroke="#000000" d="M 727.1695039351113 196.68848702193165 L 731 207 L 735.582771008294 197.0000895061236" stroke-miterlimit="10"/></g><g transform="translate(-54,-6) scale(1,1)"><path fill="none" stroke="#000000" d="M 701 218 L 719 217" stroke-miterlimit="10"/></g><g transform="translate(-54,-6) scale(1,1)"><path fill="none" stroke="#000000" d="M 709.0864741046723 221.7667603592659 L 719 217 L 708.6194700396172 213.36068718827354" stroke-miterlimit="10"/></g><g transform="translate(-54,-6) scale(1,1)"><g><path fill="none" stroke="none"/><text fill="#000000" stroke="none" font-family="Arial" font-size="24px" font-style="normal" font-weight="normal" text-decoration="none" x="565" y="77">CreateController</text></g></g><g transform="translate(-54,-6) scale(1,1)"><path fill="none" stroke="#000000" d="M 383 409 L 495 409" stroke-miterlimit="10"/></g><g transform="translate(-54,-6) scale(1,1)"><path fill="none" stroke="#000000" d="M 484.83732514237585 413.209517756016 L 495 409 L 484.83732514237585 404.790482243984" stroke-miterlimit="10"/></g><g transform="translate(-54,-6) scale(1,1)"><g><path fill="none" stroke="none"/><text fill="#000000" stroke="none" font-family="Arial" font-size="13px" font-style="normal" font-weight="normal" text-decoration="none" x="417.687744140625" y="400.5"> [sprint]</text></g></g><g transform="translate(-54,-6) scale(1,1)"><path fill="#C0C0C0" stroke="none" d="M 337 495 L 418.46630859375 495 Q 428.46630859375 495 428.46630859375 505 L 428.46630859375 525 Q 428.46630859375 535 418.46630859375 535 L 337 535 Q 327 535 327 525 L 327 505 Q 327 495 337 495 Z" opacity="0.2"/></g><g transform="translate(-54,-6) scale(1,1)"><path fill="#ffffff" stroke="none" d="M 330 488 L 411.46630859375 488 Q 421.46630859375 488 421.46630859375 498 L 421.46630859375 518 Q 421.46630859375 528 411.46630859375 528 L 330 528 Q 320 528 320 518 L 320 498 Q 320 488 330 488 Z"/></g><g transform="translate(-54,-6) scale(1,1)"><path fill="none" stroke="#000000" d="M 330 488 L 411.46630859375 488 Q 421.46630859375 488 421.46630859375 498 L 421.46630859375 518 Q 421.46630859375 528 411.46630859375 528 L 330 528 Q 320 528 320 518 L 320 498 Q 320 488 330 488 Z" stroke-miterlimit="10"/></g><g transform="translate(-54,-6) scale(1,1)"><g><path fill="none" stroke="none"/><text fill="#000000" stroke="none" font-family="Arial" font-size="13px" font-style="normal" font-weight="bold" text-decoration="none" x="327.023193359375" y="507.5">getCreateForm</text></g></g><g transform="translate(-54,-6) scale(1,1)"><path fill="none" stroke="#000000" d="M 371 419 L 370 487" stroke-miterlimit="10"/></g><g transform="translate(-54,-6) scale(1,1)"><path fill="none" stroke="#000000" d="M 365.9403722946846 476.7765258891981 L 370 487 L 374.3584975915118 476.9003218494456" stroke-miterlimit="10"/></g><g transform="translate(-54,-6) scale(1,1)"><path fill="#C0C0C0" stroke="none" d="M 337 655 L 419.18359375 655 Q 429.18359375 655 429.18359375 665 L 429.18359375 685 Q 429.18359375 695 419.18359375 695 L 337 695 Q 327 695 327 685 L 327 665 Q 327 655 337 655 Z" opacity="0.2"/></g><g transform="translate(-54,-6) scale(1,1)"><path fill="#ffffff" stroke="none" d="M 330 648 L 412.18359375 648 Q 422.18359375 648 422.18359375 658 L 422.18359375 678 Q 422.18359375 688 412.18359375 688 L 330 688 Q 320 688 320 678 L 320 658 Q 320 648 330 648 Z"/></g><g transform="translate(-54,-6) scale(1,1)"><path fill="none" stroke="#000000" d="M 330 648 L 412.18359375 648 Q 422.18359375 648 422.18359375 658 L 422.18359375 678 Q 422.18359375 688 412.18359375 688 L 330 688 Q 320 688 320 678 L 320 658 Q 320 648 330 648 Z" stroke-miterlimit="10"/></g><g transform="translate(-54,-6) scale(1,1)"><g><path fill="none" stroke="none"/><text fill="#000000" stroke="none" font-family="Arial" font-size="13px" font-style="normal" font-weight="bold" text-decoration="none" x="327.36279296875" y="667.5">handleRequest</text></g></g><g transform="translate(-54,-6) scale(1,1)"><path fill="none" stroke="#000000" d="M 370 529 L 371 647" stroke-miterlimit="10"/></g><g transform="translate(-54,-6) scale(1,1)"><path fill="none" stroke="#000000" d="M 366.70451212563995 636.8733626547987 L 371 647 L 375.1232453329442 636.8020174581267" stroke-miterlimit="10"/></g><g transform="translate(-54,-6) scale(1,1)"><path fill="#C0C0C0" stroke="none" d="M 503 672.5 L 514.5 663 L 525 672.5 L 514.5 681 L 503 672.5" opacity="0.2"/></g><g transform="translate(-54,-6) scale(1,1)"><path fill="#ffffff" stroke="none" d="M 496 665 L 507 656 L 518 665 L 507 674 L 496 665"/></g><g transform="translate(-54,-6) scale(1,1)"><path fill="none" stroke="#000000" d="M 496 665 L 507 656 L 518 665 L 507 674 L 496 665 L 496 665" stroke-miterlimit="10"/></g><g transform="translate(-54,-6) scale(1,1)"><path fill="none" stroke="#000000" d="M 423 667 L 495 665" stroke-miterlimit="10"/></g><g transform="translate(-54,-6) scale(1,1)"><path fill="none" stroke="#000000" d="M 484.9581296224948 669.4900823290208 L 495 665 L 484.72435769733335 661.0742930232062" stroke-miterlimit="10"/></g><g transform="translate(-54,-6) scale(1,1)"><path fill="none" stroke="#000000" d="M 519 665 L 711 668" stroke-miterlimit="10"/></g><g transform="translate(-54,-6) scale(1,1)"><path fill="none" stroke="#000000" d="M 700.7727997887746 672.050231578504 L 711 668 L 700.9043311635539 663.6322235926261" stroke-miterlimit="10"/></g><g transform="translate(-54,-6) scale(1,1)"><g><path fill="none" stroke="none"/><text fill="#000000" stroke="none" font-family="Arial" font-size="13px" font-style="normal" font-weight="normal" text-decoration="none" x="588.628662109375" y="657.5"> [!isValid]</text></g></g><g transform="translate(-54,-6) scale(1,1)"><path fill="#C0C0C0" stroke="none" d="M 481 540 L 545.86083984375 540 Q 555.86083984375 540 555.86083984375 550 L 555.86083984375 570 Q 555.86083984375 580 545.86083984375 580 L 481 580 Q 471 580 471 570 L 471 550 Q 471 540 481 540 Z" opacity="0.2"/></g><g transform="translate(-54,-6) scale(1,1)"><path fill="#ffffff" stroke="none" d="M 474 533 L 538.86083984375 533 Q 548.86083984375 533 548.86083984375 543 L 548.86083984375 563 Q 548.86083984375 573 538.86083984375 573 L 474 573 Q 464 573 464 563 L 464 543 Q 464 533 474 533 Z"/></g><g transform="translate(-54,-6) scale(1,1)"><path fill="none" stroke="#000000" d="M 474 533 L 538.86083984375 533 Q 548.86083984375 533 548.86083984375 543 L 548.86083984375 563 Q 548.86083984375 573 538.86083984375 573 L 474 573 Q 464 573 464 563 L 464 543 Q 464 533 474 533 Z" stroke-miterlimit="10"/></g><g transform="translate(-54,-6) scale(1,1)"><g><path fill="none" stroke="none"/><text fill="#000000" stroke="none" font-family="Arial" font-size="13px" font-style="normal" font-weight="bold" text-decoration="none" x="471.385009765625" y="552.5">createSprint</text></g></g><g transform="translate(-54,-6) scale(1,1)"><path fill="none" stroke="#000000" d="M 507 655 L 506 574" stroke-miterlimit="10"/></g><g transform="translate(-54,-6) scale(1,1)"><path fill="none" stroke="#000000" d="M 510.33465255555376 584.1099350750948 L 506 574 L 501.9162585671644 584.2138658650749" stroke-miterlimit="10"/></g><g transform="translate(-54,-6) scale(1,1)"><path fill="#C0C0C0" stroke="none" d="M 503 416.5 L 514.5 407 L 525 416.5 L 514.5 425 L 503 416.5" opacity="0.2"/></g><g transform="translate(-54,-6) scale(1,1)"><path fill="#ffffff" stroke="none" d="M 496 409 L 507 400 L 518 409 L 507 418 L 496 409"/></g><g transform="translate(-54,-6) scale(1,1)"><path fill="none" stroke="#000000" d="M 496 409 L 507 400 L 518 409 L 507 418 L 496 409 L 496 409" stroke-miterlimit="10"/></g><g transform="translate(-54,-6) scale(1,1)"><path fill="none" stroke="#000000" d="M 506 532 L 507 419" stroke-miterlimit="10"/></g><g transform="translate(-54,-6) scale(1,1)"><path fill="none" stroke="#000000" d="M 511.1194212778873 429.19952784864523 L 507 419 L 502.70071541348017 429.12502602683634" stroke-miterlimit="10"/></g><g transform="translate(-54,-6) scale(1,1)"><path fill="none" stroke="#000000" d="M 519 409 L 575 411" stroke-miterlimit="10"/></g><g transform="translate(-54,-6) scale(1,1)"><path fill="none" stroke="#000000" d="M 564.6935561150473 414.8441142603102 L 575 411 L 564.9940443779101 406.43044290015257" stroke-miterlimit="10"/></g><g transform="translate(-54,-6) scale(1,1)"><path fill="#C0C0C0" stroke="none" d="M 975 88.5 C 975 83.2532944 979.2532944 79 984.5 79 C 989.7467056 79 994 83.2532944 994 88.5 C 994 93.7467056 989.7467056 98 984.5 98 C 979.2532944 98 975 93.7467056 975 88.5 Z" opacity="0.2"/></g><g transform="translate(-54,-6) scale(1,1)"><path fill="#000000" stroke="none" d="M 968 81.5 C 968 76.2532944 972.2532944 72 977.5 72 C 982.7467056 72 987 76.2532944 987 81.5 C 987 86.7467056 982.7467056 91 977.5 91 C 972.2532944 91 968 86.7467056 968 81.5 Z"/></g><g transform="translate(-54,-6) scale(1,1)"><path fill="#C0C0C0" stroke="none" d="M 1455 451.5 C 1455 444.59644 1460.59644 439 1467.5 439 C 1474.40356 439 1480 444.59644 1480 451.5 C 1480 458.40356 1474.40356 464 1467.5 464 C 1460.59644 464 1455 458.40356 1455 451.5 Z" opacity="0.2"/></g><g transform="translate(-54,-6) scale(1,1)"><path fill="none" stroke="#000000" d="M 1448 444.5 C 1448 437.59644 1453.59644 432 1460.5 432 C 1467.40356 432 1473 437.59644 1473 444.5 C 1473 451.40356 1467.40356 457 1460.5 457 C 1453.59644 457 1448 451.40356 1448 444.5 Z" stroke-miterlimit="10"/></g><g transform="translate(-54,-6) scale(1,1)"><path fill="#000000" stroke="none" d="M 1453 444.5 C 1453 440.357864 1456.357864 437 1460.5 437 C 1464.642136 437 1468 440.357864 1468 444.5 C 1468 448.642136 1464.642136 452 1460.5 452 C 1456.357864 452 1453 448.642136 1453 444.5 Z"/></g><g transform="translate(-54,-6) scale(1,1)"><path fill="#C0C0C0" stroke="none" d="M 1313 71 L 1406.01904296875 71 Q 1416.01904296875 71 1416.01904296875 81 L 1416.01904296875 101 Q 1416.01904296875 111 1406.01904296875 111 L 1313 111 Q 1303 111 1303 101 L 1303 81 Q 1303 71 1313 71 Z" opacity="0.2"/></g><g transform="translate(-54,-6) scale(1,1)"><path fill="#ffffff" stroke="none" d="M 1306 64 L 1399.01904296875 64 Q 1409.01904296875 64 1409.01904296875 74 L 1409.01904296875 94 Q 1409.01904296875 104 1399.01904296875 104 L 1306 104 Q 1296 104 1296 94 L 1296 74 Q 1296 64 1306 64 Z"/></g><g transform="translate(-54,-6) scale(1,1)"><path fill="none" stroke="#000000" d="M 1306 64 L 1399.01904296875 64 Q 1409.01904296875 64 1409.01904296875 74 L 1409.01904296875 94 Q 1409.01904296875 104 1399.01904296875 104 L 1306 104 Q 1296 104 1296 94 L 1296 74 Q 1296 64 1306 64 Z" stroke-miterlimit="10"/></g><g transform="translate(-54,-6) scale(1,1)"><g><path fill="none" stroke="none"/><text fill="#000000" stroke="none" font-family="Arial" font-size="13px" font-style="normal" font-weight="bold" text-decoration="none" x="1303.3818359375" y="83.5">RedirectToHome</text></g></g><g transform="translate(-54,-6) scale(1,1)"><path fill="#C0C0C0" stroke="none" d="M 1143 88.5 L 1154.5 79 L 1165 88.5 L 1154.5 97 L 1143 88.5" opacity="0.2"/></g><g transform="translate(-54,-6) scale(1,1)"><path fill="#ffffff" stroke="none" d="M 1136 81 L 1147 72 L 1158 81 L 1147 90 L 1136 81"/></g><g transform="translate(-54,-6) scale(1,1)"><path fill="none" stroke="#000000" d="M 1136 81 L 1147 72 L 1158 81 L 1147 90 L 1136 81 L 1136 81" stroke-miterlimit="10"/></g><g transform="translate(-54,-6) scale(1,1)"><path fill="none" stroke="#000000" d="M 988 81 L 1135 81" stroke-miterlimit="10"/></g><g transform="translate(-54,-6) scale(1,1)"><path fill="none" stroke="#000000" d="M 1124.837325142376 85.20951775601598 L 1135 81 L 1124.837325142376 76.79048224398402" stroke-miterlimit="10"/></g><g transform="translate(-54,-6) scale(1,1)"><path fill="none" stroke="#000000" d="M 1159 81 L 1295 83" stroke-miterlimit="10"/></g><g transform="translate(-54,-6) scale(1,1)"><path fill="none" stroke="#000000" d="M 1284.7765258891982 87.05962770531539 L 1295 83 L 1284.9003218494456 78.6415024084882" stroke-miterlimit="10"/></g><g transform="translate(-54,-6) scale(1,1)"><g><path fill="none" stroke="none"/><text fill="#000000" stroke="none" font-family="Arial" font-size="13px" font-style="normal" font-weight="normal" text-decoration="none" x="1174.5" y="73.5">!hasGlobalAccess</text></g></g><g transform="translate(-54,-6) scale(1,1)"><path fill="#C0C0C0" stroke="none" d="M 1143 224.5 L 1154.5 215 L 1165 224.5 L 1154.5 233 L 1143 224.5" opacity="0.2"/></g><g transform="translate(-54,-6) scale(1,1)"><path fill="#ffffff" stroke="none" d="M 1136 217 L 1147 208 L 1158 217 L 1147 226 L 1136 217"/></g><g transform="translate(-54,-6) scale(1,1)"><path fill="none" stroke="#000000" d="M 1136 217 L 1147 208 L 1158 217 L 1147 226 L 1136 217 L 1136 217" stroke-miterlimit="10"/></g><g transform="translate(-54,-6) scale(1,1)"><path fill="none" stroke="#000000" d="M 1147 91 L 1147 207" stroke-miterlimit="10"/></g><g transform="translate(-54,-6) scale(1,1)"><path fill="none" stroke="#000000" d="M 1142.7904822439841 196.83732514237585 L 1147 207 L 1151.2095177560159 196.83732514237585" stroke-miterlimit="10"/></g><g transform="translate(-54,-6) scale(1,1)"><path fill="#C0C0C0" stroke="none" d="M 1201 351 L 1240 351 Q 1250 351 1250 361 L 1250 381 Q 1250 391 1240 391 L 1201 391 Q 1191 391 1191 381 L 1191 361 Q 1191 351 1201 351 Z" opacity="0.2"/></g><g transform="translate(-54,-6) scale(1,1)"><path fill="#ffffff" stroke="none" d="M 1194 344 L 1233 344 Q 1243 344 1243 354 L 1243 374 Q 1243 384 1233 384 L 1194 384 Q 1184 384 1184 374 L 1184 354 Q 1184 344 1194 344 Z"/></g><g transform="translate(-54,-6) scale(1,1)"><path fill="none" stroke="#000000" d="M 1194 344 L 1233 344 Q 1243 344 1243 354 L 1243 374 Q 1243 384 1233 384 L 1194 384 Q 1184 384 1184 374 L 1184 354 Q 1184 344 1194 344 Z" stroke-miterlimit="10"/></g><g transform="translate(-54,-6) scale(1,1)"><g><path fill="none" stroke="none"/><text fill="#000000" stroke="none" font-family="Arial" font-size="13px" font-style="normal" font-weight="bold" text-decoration="none" x="1192.181396484375" y="363.5">Render</text></g></g><g transform="translate(-54,-6) scale(1,1)"><path fill="#C0C0C0" stroke="none" d="M 1321 207 L 1418.3671875 207 Q 1428.3671875 207 1428.3671875 217 L 1428.3671875 237 Q 1428.3671875 247 1418.3671875 247 L 1321 247 Q 1311 247 1311 237 L 1311 217 Q 1311 207 1321 207 Z" opacity="0.2"/></g><g transform="translate(-54,-6) scale(1,1)"><path fill="#ffffff" stroke="none" d="M 1314 200 L 1411.3671875 200 Q 1421.3671875 200 1421.3671875 210 L 1421.3671875 230 Q 1421.3671875 240 1411.3671875 240 L 1314 240 Q 1304 240 1304 230 L 1304 210 Q 1304 200 1314 200 Z"/></g><g transform="translate(-54,-6) scale(1,1)"><path fill="none" stroke="#000000" d="M 1314 200 L 1411.3671875 200 Q 1421.3671875 200 1421.3671875 210 L 1421.3671875 230 Q 1421.3671875 240 1411.3671875 240 L 1314 240 Q 1304 240 1304 230 L 1304 210 Q 1304 200 1314 200 Z" stroke-miterlimit="10"/></g><g transform="translate(-54,-6) scale(1,1)"><g><path fill="none" stroke="none"/><text fill="#000000" stroke="none" font-family="Arial" font-size="13px" font-style="normal" font-weight="bold" text-decoration="none" x="1311.385009765625" y="219.5">RedirectToCreate</text></g></g><g transform="translate(-54,-6) scale(1,1)"><path fill="none" stroke="#000000" d="M 1159 217 L 1303 219" stroke-miterlimit="10"/></g><g transform="translate(-54,-6) scale(1,1)"><path fill="none" stroke="#000000" d="M 1292.7798453106823 223.06797715411673 L 1303 219 L 1292.89676508302 214.6497535457958" stroke-miterlimit="10"/></g><g transform="translate(-54,-6) scale(1,1)"><g><path fill="none" stroke="none"/><text fill="#000000" stroke="none" font-family="Arial" font-size="13px" font-style="normal" font-weight="normal" text-decoration="none" x="1180.5" y="209.5">!hasSprintAccess</text></g></g><g transform="translate(-54,-6) scale(1,1)"><path fill="none" stroke="#000000" d="M 1144 226 L 1144 360 L 1184 360" stroke-miterlimit="10"/></g><g transform="translate(-54,-6) scale(1,1)"><path fill="none" stroke="#000000" d="M 1173.837325142376 364.209517756016 L 1184 360 L 1173.837325142376 355.790482243984" stroke-miterlimit="10"/></g><g transform="translate(-54,-6) scale(1,1)"><path fill="#C0C0C0" stroke="none" d="M 1455 368.5 L 1466.5 359 L 1477 368.5 L 1466.5 377 L 1455 368.5" opacity="0.2"/></g><g transform="translate(-54,-6) scale(1,1)"><path fill="#ffffff" stroke="none" d="M 1448 361 L 1459 352 L 1470 361 L 1459 370 L 1448 361"/></g><g transform="translate(-54,-6) scale(1,1)"><path fill="none" stroke="#000000" d="M 1448 361 L 1459 352 L 1470 361 L 1459 370 L 1448 361 L 1448 361" stroke-miterlimit="10"/></g><g transform="translate(-54,-6) scale(1,1)"><path fill="none" stroke="#000000" d="M 1409 80 L 1520 80 L 1520 361 L 1470 361" stroke-miterlimit="10"/></g><g transform="translate(-54,-6) scale(1,1)"><path fill="none" stroke="#000000" d="M 1480.162674857624 356.790482243984 L 1470 361 L 1480.162674857624 365.209517756016" stroke-miterlimit="10"/></g><g transform="translate(-54,-6) scale(1,1)"><path fill="none" stroke="#000000" d="M 1421 216 L 1459 216 L 1459 352" stroke-miterlimit="10"/></g><g transform="translate(-54,-6) scale(1,1)"><path fill="none" stroke="#000000" d="M 1454.7904822439841 341.83732514237585 L 1459 352 L 1463.2095177560159 341.83732514237585" stroke-miterlimit="10"/></g><g transform="translate(-54,-6) scale(1,1)"><path fill="none" stroke="#000000" d="M 1243 360 L 1448 360" stroke-miterlimit="10"/></g><g transform="translate(-54,-6) scale(1,1)"><path fill="none" stroke="#000000" d="M 1437.837325142376 364.209517756016 L 1448 360 L 1437.837325142376 355.790482243984" stroke-miterlimit="10"/></g><g transform="translate(-54,-6) scale(1,1)"><path fill="none" stroke="#000000" d="M 1459 371 L 1460 431" stroke-miterlimit="10"/></g><g transform="translate(-54,-6) scale(1,1)"><path fill="none" stroke="#000000" d="M 1455.6217123829697 420.9088852180466 L 1460 431 L 1464.039578828064 420.7685874439617" stroke-miterlimit="10"/></g><g transform="translate(-54,-6) scale(1,1)"><g><path fill="none" stroke="none"/><text fill="#000000" stroke="none" font-family="Arial" font-size="24px" font-style="normal" font-weight="normal" text-decoration="none" x="1037" y="501">SprintController</text></g></g><g transform="translate(-54,-6) scale(1,1)"><path fill="#C0C0C0" stroke="none" d="M 999 650.5 C 999 645.2532944 1003.2532944 641 1008.5 641 C 1013.7467056 641 1018 645.2532944 1018 650.5 C 1018 655.7467056 1013.7467056 660 1008.5 660 C 1003.2532944 660 999 655.7467056 999 650.5 Z" opacity="0.2"/></g><g transform="translate(-54,-6) scale(1,1)"><path fill="#000000" stroke="none" d="M 992 643.5 C 992 638.2532944 996.2532944 634 1001.5 634 C 1006.7467056 634 1011 638.2532944 1011 643.5 C 1011 648.7467056 1006.7467056 653 1001.5 653 C 996.2532944 653 992 648.7467056 992 643.5 Z"/></g><g transform="translate(-54,-6) scale(1,1)"><path fill="#C0C0C0" stroke="none" d="M 1430 911.5 C 1430 904.59644 1435.59644 899 1442.5 899 C 1449.40356 899 1455 904.59644 1455 911.5 C 1455 918.40356 1449.40356 924 1442.5 924 C 1435.59644 924 1430 918.40356 1430 911.5 Z" opacity="0.2"/></g><g transform="translate(-54,-6) scale(1,1)"><path fill="none" stroke="#000000" d="M 1423 904.5 C 1423 897.59644 1428.59644 892 1435.5 892 C 1442.40356 892 1448 897.59644 1448 904.5 C 1448 911.40356 1442.40356 917 1435.5 917 C 1428.59644 917 1423 911.40356 1423 904.5 Z" stroke-miterlimit="10"/></g><g transform="translate(-54,-6) scale(1,1)"><path fill="#000000" stroke="none" d="M 1428 904.5 C 1428 900.357864 1431.357864 897 1435.5 897 C 1439.642136 897 1443 900.357864 1443 904.5 C 1443 908.642136 1439.642136 912 1435.5 912 C 1431.357864 912 1428 908.642136 1428 904.5 Z"/></g><g transform="translate(-54,-6) scale(1,1)"><path fill="#C0C0C0" stroke="none" d="M 1128 786.5 L 1139.5 777 L 1150 786.5 L 1139.5 795 L 1128 786.5" opacity="0.2"/></g><g transform="translate(-54,-6) scale(1,1)"><path fill="#ffffff" stroke="none" d="M 1121 779 L 1132 770 L 1143 779 L 1132 788 L 1121 779"/></g><g transform="translate(-54,-6) scale(1,1)"><path fill="none" stroke="#000000" d="M 1121 779 L 1132 770 L 1143 779 L 1132 788 L 1121 779 L 1121 779" stroke-miterlimit="10"/></g><g transform="translate(-54,-6) scale(1,1)"><path fill="#C0C0C0" stroke="none" d="M 1128 650.5 L 1139.5 641 L 1150 650.5 L 1139.5 659 L 1128 650.5" opacity="0.2"/></g><g transform="translate(-54,-6) scale(1,1)"><path fill="#ffffff" stroke="none" d="M 1121 643 L 1132 634 L 1143 643 L 1132 652 L 1121 643"/></g><g transform="translate(-54,-6) scale(1,1)"><path fill="none" stroke="#000000" d="M 1121 643 L 1132 634 L 1143 643 L 1132 652 L 1121 643 L 1121 643" stroke-miterlimit="10"/></g><g transform="translate(-54,-6) scale(1,1)"><path fill="#C0C0C0" stroke="none" d="M 1431 786.5 L 1442.5 777 L 1453 786.5 L 1442.5 795 L 1431 786.5" opacity="0.2"/></g><g transform="translate(-54,-6) scale(1,1)"><path fill="#ffffff" stroke="none" d="M 1424 779 L 1435 770 L 1446 779 L 1435 788 L 1424 779"/></g><g transform="translate(-54,-6) scale(1,1)"><path fill="none" stroke="#000000" d="M 1424 779 L 1435 770 L 1446 779 L 1435 788 L 1424 779 L 1424 779" stroke-miterlimit="10"/></g><g transform="translate(-54,-6) scale(1,1)"><path fill="none" stroke="#000000" d="M 1012 643 L 1120 643" stroke-miterlimit="10"/></g><g transform="translate(-54,-6) scale(1,1)"><path fill="none" stroke="#000000" d="M 1109.837325142376 647.209517756016 L 1120 643 L 1109.837325142376 638.790482243984" stroke-miterlimit="10"/></g><g transform="translate(-54,-6) scale(1,1)"><path fill="none" stroke="#000000" d="M 1132 653 L 1132 769" stroke-miterlimit="10"/></g><g transform="translate(-54,-6) scale(1,1)"><path fill="none" stroke="#000000" d="M 1127.7904822439841 758.8373251423759 L 1132 769 L 1136.2095177560159 758.8373251423759" stroke-miterlimit="10"/></g><g transform="translate(-54,-6) scale(1,1)"><path fill="#C0C0C0" stroke="none" d="M 1398 630 L 1486.68994140625 630 Q 1496.68994140625 630 1496.68994140625 640 L 1496.68994140625 660 Q 1496.68994140625 670 1486.68994140625 670 L 1398 670 Q 1388 670 1388 660 L 1388 640 Q 1388 630 1398 630 Z" opacity="0.2"/></g><g transform="translate(-54,-6) scale(1,1)"><path fill="#ffffff" stroke="none" d="M 1391 623 L 1479.68994140625 623 Q 1489.68994140625 623 1489.68994140625 633 L 1489.68994140625 653 Q 1489.68994140625 663 1479.68994140625 663 L 1391 663 Q 1381 663 1381 653 L 1381 633 Q 1381 623 1391 623 Z"/></g><g transform="translate(-54,-6) scale(1,1)"><path fill="none" stroke="#000000" d="M 1391 623 L 1479.68994140625 623 Q 1489.68994140625 623 1489.68994140625 633 L 1489.68994140625 653 Q 1489.68994140625 663 1479.68994140625 663 L 1391 663 Q 1381 663 1381 653 L 1381 633 Q 1381 623 1391 623 Z" stroke-miterlimit="10"/></g><g transform="translate(-54,-6) scale(1,1)"><g><path fill="none" stroke="none"/><text fill="#000000" stroke="none" font-family="Arial" font-size="13px" font-style="normal" font-weight="bold" text-decoration="none" x="1388.746826171875" y="642.5">redirectToHome</text></g></g><g transform="translate(-54,-6) scale(1,1)"><path fill="none" stroke="#000000" d="M 1144 643 L 1380 643" stroke-miterlimit="10"/></g><g transform="translate(-54,-6) scale(1,1)"><path fill="none" stroke="#000000" d="M 1369.837325142376 647.209517756016 L 1380 643 L 1369.837325142376 638.790482243984" stroke-miterlimit="10"/></g><g transform="translate(-54,-6) scale(1,1)"><path fill="#C0C0C0" stroke="none" d="M 1273 766 L 1363.12451171875 766 Q 1373.12451171875 766 1373.12451171875 776 L 1373.12451171875 796 Q 1373.12451171875 806 1363.12451171875 806 L 1273 806 Q 1263 806 1263 796 L 1263 776 Q 1263 766 1273 766 Z" opacity="0.2"/></g><g transform="translate(-54,-6) scale(1,1)"><path fill="#ffffff" stroke="none" d="M 1266 759 L 1356.12451171875 759 Q 1366.12451171875 759 1366.12451171875 769 L 1366.12451171875 789 Q 1366.12451171875 799 1356.12451171875 799 L 1266 799 Q 1256 799 1256 789 L 1256 769 Q 1256 759 1266 759 Z"/></g><g transform="translate(-54,-6) scale(1,1)"><path fill="none" stroke="#000000" d="M 1266 759 L 1356.12451171875 759 Q 1366.12451171875 759 1366.12451171875 769 L 1366.12451171875 789 Q 1366.12451171875 799 1356.12451171875 799 L 1266 799 Q 1256 799 1256 789 L 1256 769 Q 1256 759 1266 759 Z" stroke-miterlimit="10"/></g><g transform="translate(-54,-6) scale(1,1)"><g><path fill="none" stroke="none"/><text fill="#000000" stroke="none" font-family="Arial" font-size="13px" font-style="normal" font-weight="bold" text-decoration="none" x="1264.82275390625" y="778.5">redirectToSprint</text></g></g><g transform="translate(-54,-6) scale(1,1)"><path fill="none" stroke="#000000" d="M 1144 779 L 1255 779" stroke-miterlimit="10"/></g><g transform="translate(-54,-6) scale(1,1)"><path fill="none" stroke="#000000" d="M 1244.837325142376 783.209517756016 L 1255 779 L 1244.837325142376 774.790482243984" stroke-miterlimit="10"/></g><g transform="translate(-54,-6) scale(1,1)"><path fill="none" stroke="#000000" d="M 1367 779 L 1423 779" stroke-miterlimit="10"/></g><g transform="translate(-54,-6) scale(1,1)"><path fill="none" stroke="#000000" d="M 1412.837325142376 783.209517756016 L 1423 779 L 1412.837325142376 774.790482243984" stroke-miterlimit="10"/></g><g transform="translate(-54,-6) scale(1,1)"><path fill="#C0C0C0" stroke="none" d="M 1112 891 L 1166.0126953125 891 Q 1176.0126953125 891 1176.0126953125 901 L 1176.0126953125 921 Q 1176.0126953125 931 1166.0126953125 931 L 1112 931 Q 1102 931 1102 921 L 1102 901 Q 1102 891 1112 891 Z" opacity="0.2"/></g><g transform="translate(-54,-6) scale(1,1)"><path fill="#ffffff" stroke="none" d="M 1105 884 L 1159.0126953125 884 Q 1169.0126953125 884 1169.0126953125 894 L 1169.0126953125 914 Q 1169.0126953125 924 1159.0126953125 924 L 1105 924 Q 1095 924 1095 914 L 1095 894 Q 1095 884 1105 884 Z"/></g><g transform="translate(-54,-6) scale(1,1)"><path fill="none" stroke="#000000" d="M 1105 884 L 1159.0126953125 884 Q 1169.0126953125 884 1169.0126953125 894 L 1169.0126953125 914 Q 1169.0126953125 924 1159.0126953125 924 L 1105 924 Q 1095 924 1095 914 L 1095 894 Q 1095 884 1105 884 Z" stroke-miterlimit="10"/></g><g transform="translate(-54,-6) scale(1,1)"><g><path fill="none" stroke="none"/><text fill="#000000" stroke="none" font-family="Arial" font-size="13px" font-style="normal" font-weight="bold" text-decoration="none" x="1102.016845703125" y="903.5">readSprint</text></g></g><g transform="translate(-54,-6) scale(1,1)"><path fill="#C0C0C0" stroke="none" d="M 1209 891 L 1248 891 Q 1258 891 1258 901 L 1258 921 Q 1258 931 1248 931 L 1209 931 Q 1199 931 1199 921 L 1199 901 Q 1199 891 1209 891 Z" opacity="0.2"/></g><g transform="translate(-54,-6) scale(1,1)"><path fill="#ffffff" stroke="none" d="M 1202 884 L 1241 884 Q 1251 884 1251 894 L 1251 914 Q 1251 924 1241 924 L 1202 924 Q 1192 924 1192 914 L 1192 894 Q 1192 884 1202 884 Z"/></g><g transform="translate(-54,-6) scale(1,1)"><path fill="none" stroke="#000000" d="M 1202 884 L 1241 884 Q 1251 884 1251 894 L 1251 914 Q 1251 924 1241 924 L 1202 924 Q 1192 924 1192 914 L 1192 894 Q 1192 884 1202 884 Z" stroke-miterlimit="10"/></g><g transform="translate(-54,-6) scale(1,1)"><g><path fill="none" stroke="none"/><text fill="#000000" stroke="none" font-family="Arial" font-size="13px" font-style="normal" font-weight="bold" text-decoration="none" x="1199.825927734375" y="903.5">remove</text></g></g><g transform="translate(-54,-6) scale(1,1)"><path fill="#C0C0C0" stroke="none" d="M 1305 891 L 1344 891 Q 1354 891 1354 901 L 1354 921 Q 1354 931 1344 931 L 1305 931 Q 1295 931 1295 921 L 1295 901 Q 1295 891 1305 891 Z" opacity="0.2"/></g><g transform="translate(-54,-6) scale(1,1)"><path fill="#ffffff" stroke="none" d="M 1298 884 L 1337 884 Q 1347 884 1347 894 L 1347 914 Q 1347 924 1337 924 L 1298 924 Q 1288 924 1288 914 L 1288 894 Q 1288 884 1298 884 Z"/></g><g transform="translate(-54,-6) scale(1,1)"><path fill="none" stroke="#000000" d="M 1298 884 L 1337 884 Q 1347 884 1347 894 L 1347 914 Q 1347 924 1337 924 L 1298 924 Q 1288 924 1288 914 L 1288 894 Q 1288 884 1298 884 Z" stroke-miterlimit="10"/></g><g transform="translate(-54,-6) scale(1,1)"><g><path fill="none" stroke="none"/><text fill="#000000" stroke="none" font-family="Arial" font-size="13px" font-style="normal" font-weight="bold" text-decoration="none" x="1303.77001953125" y="903.5">flush</text></g></g><g transform="translate(-54,-6) scale(1,1)"><path fill="none" stroke="#000000" d="M 1132 789 L 1132 883" stroke-miterlimit="10"/></g><g transform="translate(-54,-6) scale(1,1)"><path fill="none" stroke="#000000" d="M 1127.7904822439841 872.8373251423759 L 1132 883 L 1136.2095177560159 872.8373251423759" stroke-miterlimit="10"/></g><g transform="translate(-54,-6) scale(1,1)"><path fill="none" stroke="#000000" d="M 1170 904 L 1191 904" stroke-miterlimit="10"/></g><g transform="translate(-54,-6) scale(1,1)"><path fill="none" stroke="#000000" d="M 1180.837325142376 908.209517756016 L 1191 904 L 1180.837325142376 899.790482243984" stroke-miterlimit="10"/></g><g transform="translate(-54,-6) scale(1,1)"><path fill="none" stroke="#000000" d="M 1252 904 L 1287 904" stroke-miterlimit="10"/></g><g transform="translate(-54,-6) scale(1,1)"><path fill="none" stroke="#000000" d="M 1276.837325142376 908.209517756016 L 1287 904 L 1276.837325142376 899.790482243984" stroke-miterlimit="10"/></g><g transform="translate(-54,-6) scale(1,1)"><path fill="none" stroke="#000000" d="M 1337 883 L 1426 789" stroke-miterlimit="10"/></g><g transform="translate(-54,-6) scale(1,1)"><path fill="none" stroke="#000000" d="M 1422.0696177245172 799.2738549322331 L 1426 789 L 1415.9560875488419 793.4855125318596" stroke-miterlimit="10"/></g><g transform="translate(-54,-6) scale(1,1)"><path fill="none" stroke="#000000" d="M 1435 664 L 1435 769" stroke-miterlimit="10"/></g><g transform="translate(-54,-6) scale(1,1)"><path fill="none" stroke="#000000" d="M 1430.7904822439841 758.8373251423759 L 1435 769 L 1439.2095177560159 758.8373251423759" stroke-miterlimit="10"/></g><g transform="translate(-54,-6) scale(1,1)"><path fill="none" stroke="#000000" d="M 1435 789 L 1435 891" stroke-miterlimit="10"/></g><g transform="translate(-54,-6) scale(1,1)"><path fill="none" stroke="#000000" d="M 1430.7904822439841 880.8373251423759 L 1435 891 L 1439.2095177560159 880.8373251423759" stroke-miterlimit="10"/></g><g transform="translate(-54,-6) scale(1,1)"><g><path fill="none" stroke="none"/><text fill="#000000" stroke="none" font-family="Arial" font-size="24px" font-style="normal" font-weight="normal" text-decoration="none" x="989" y="997">DeleteController</text></g></g></g></svg>